<?xml version="1.0" standalone="no"?><!DOCTYPE svg PUBLIC "-//W3C//DTD SVG 1.1//EN" "http://www.w3.org/Graphics/SVG/1.1/DTD/svg11.dtd"><svg t="1582034318297" class="icon" viewBox="0 0 1024 1024" version="1.1" xmlns="http://www.w3.org/2000/svg" p-id="4463" xmlns:xlink="http://www.w3.org/1999/xlink" width="200" height="200"><defs><style type="text/css"></style></defs><path d="M512.002047 0c-270.491551 0-489.759463 214.583217-489.759463 479.282854 0 242.418168 183.877891 442.786639 422.581458 474.831472-2.180666 13.678534-5.729491 36.765345-7.677866 53.597709-0.041956 0.366344-0.085958 0.735757-0.125867 1.095961-0.021489 0.302899-0.046049 0.605797-0.046049 0.914836 0 7.105838 5.761214 12.867052 12.867052 12.867052 0.945535 0 1.863441-0.10847 2.750647-0.301875 1.266853-0.5137 2.602268-1.056052 3.998057-1.62501 39.971363-16.288988 131.142829-54.638411 196.875926-82.375126 201.51969-59.376319 348.292498-242.418168 348.292498-459.005019C1001.757416 214.583217 782.489504 0 512.002047 0zM620.520599 898.194736 489.12399 955.877483c-0.121773 0.094144-0.26299 0.155543-0.421602 0.185218l-0.429789 0.188288-0.01228-0.01228c-0.3776-0.075725-0.656963-0.360204-0.74599-0.731664l0-45.962821c-228.774427-15.772218-409.363412-202.363917-409.363412-430.261371 0-238.228753 190.406584-431.360402 433.847036-431.360402 243.444545 0 440.780959 193.131649 440.780959 431.360402C952.778912 681.953763 813.014728 851.931063 620.520599 898.194736zM691.870624 614.07991c-7.356548 0-13.659091 4.495384-16.322757 10.886955-22.895453 35.644825-86.280062 67.978231-163.069983 67.978231-76.595492 0-140.495848-32.493042-164.241668-69.866231l-0.112564 0.049119c-3.02694-5.395894-8.794293-9.04705-15.421224-9.04705-9.764388 0-17.679661 7.915273-17.679661 17.679661 0 5.318122 2.358721 10.075473 6.074346 13.316284 30.04427 43.677778 103.010095 77.864392 189.889815 77.864392 87.375 0 163.345252-34.633798 193.309704-78.610382 3.241834-3.204995 5.253654-7.65126 5.253654-12.570293C709.550285 621.995183 701.635011 614.07991 691.870624 614.07991z" p-id="4464" fill="#1296db"></path></svg>