<?xml version="1.0" standalone="no"?><!DOCTYPE svg PUBLIC "-//W3C//DTD SVG 1.1//EN" "http://www.w3.org/Graphics/SVG/1.1/DTD/svg11.dtd"><svg t="1580488198183" class="icon" viewBox="0 0 1024 1024" version="1.1" xmlns="http://www.w3.org/2000/svg" p-id="2186" xmlns:xlink="http://www.w3.org/1999/xlink" width="200" height="200"><defs><style type="text/css"></style></defs><path d="M798.97900948 370.5390425v145.08816188H341.95130136v-106.397985l-9.67254375-38.69017688h466.70025187M179.93618792 131.14357719H63.86565917v89.4710325H179.93618792c14.50881656 0 26.59949625 4.83627187 31.43576812 19.34508844l9.67254469 33.85390406 4.83627188 12.09067969 31.43576812 130.57934531v372.3929475c0 55.61712844 50.78085656 108.81612094 108.81612094 108.81612094 24.18136031 0 50.78085656-9.67254375 74.96221687-31.43576907 19.34508844-19.34508844 29.01763219-45.94458469 29.01763219-72.54408v-14.50881656h215.21410594c-2.41813594 12.09067969 0 19.34508844 4.83627187 41.10831281 9.67254375 43.52644875 50.78085656 74.96221687 96.72544032 74.96221594h2.41813593c62.87153625 0 111.23425687-53.1989925 103.97984907-116.07052875-7.25440781-53.1989925-53.1989925-89.4710325-106.397985-89.4710325H344.36943729v-89.4710325h459.44584407c48.36272063 0 89.4710325-38.69017594 89.4710325-89.47103344V273.81360219h-580.35264469l-19.34508844-65.28967313C276.66162917 164.99748125 230.71704448 131.14357719 179.93618792 131.14357719" p-id="2187"></path></svg>