<?xml version="1.0" standalone="no"?><!DOCTYPE svg PUBLIC "-//W3C//DTD SVG 1.1//EN" "http://www.w3.org/Graphics/SVG/1.1/DTD/svg11.dtd">
<svg t="1581222066407" class="icon" viewBox="0 0 1029 1024" version="1.1" 
  xmlns="http://www.w3.org/2000/svg" p-id="1795" 
  xmlns:xlink="http://www.w3.org/1999/xlink" width="200.9765625" height="200">
  <defs>
    <style type="text/css"></style>
  </defs>
  <path d="M449.7376 824.704a128 128 0 0 1 130.688 0l184.512 109.568a25.6 25.6 0 0 0 38.016-27.648l-47.168-209.28a128 128 0 0 1 40.384-124.352l161.216-141.568a25.6 25.6 0 0 0-14.528-44.736l-213.632-19.84a128 128 0 0 1-105.792-76.8L538.5696 92.992a25.6 25.6 0 0 0-46.976 0l-84.864 197.12a128 128 0 0 1-105.792 76.8l-213.632 19.84a25.6 25.6 0 0 0-14.528 44.672l161.216 141.568a128 128 0 0 1 40.384 124.352l-47.168 209.28a25.6 25.6 0 0 0 38.016 27.648l184.512-109.568z m32.64 55.04l-184.448 109.568a89.6 89.6 0 0 1-133.12-96.768l47.104-209.28a64 64 0 0 0-20.16-62.144L30.5376 479.488a89.6 89.6 0 0 1 50.88-156.544l213.632-19.84a64 64 0 0 0 52.864-38.4l84.864-196.992a89.6 89.6 0 0 1 164.608 0l84.864 197.056a64 64 0 0 0 52.864 38.4l213.632 19.84a89.6 89.6 0 0 1 50.88 156.48l-161.216 141.632a64 64 0 0 0-20.16 62.08l47.168 209.344a89.6 89.6 0 0 1-133.12 96.768L547.7216 879.744a64 64 0 0 0-65.408 0z" fill="#2c2c2c" p-id="1796"></path>
</svg>