<?xml version="1.0" standalone="no"?><!DOCTYPE svg PUBLIC "-//W3C//DTD SVG 1.1//EN" "http://www.w3.org/Graphics/SVG/1.1/DTD/svg11.dtd"><svg t="1582207382952" class="icon" viewBox="0 0 1024 1024" version="1.1" xmlns="http://www.w3.org/2000/svg" p-id="6993" xmlns:xlink="http://www.w3.org/1999/xlink" width="200" height="200"><defs><style type="text/css"></style></defs><path d="M512 995.555556C244.622222 995.555556 28.444444 779.377778 28.444444 512S244.622222 28.444444 512 28.444444s483.555556 216.177778 483.555556 483.555556-216.177778 483.555556-483.555556 483.555556z m0-910.222223C275.911111 85.333333 85.333333 275.911111 85.333333 512s190.577778 426.666667 426.666667 426.666667 426.666667-190.577778 426.666667-426.666667S748.088889 85.333333 512 85.333333z" p-id="6994" fill="#ffffff"></path><path d="M512 512m-256 0a256 256 0 1 0 512 0 256 256 0 1 0-512 0Z" p-id="6995" fill="#ffffff"></path></svg>